<mxfile host="app.diagrams.net" modified="2021-09-15T08:41:20.758Z" agent="5.0 (Windows NT 10.0; Win64; x64) AppleWebKit/537.36 (KHTML, like Gecko) Chrome/93.0.4577.63 Safari/537.36" etag="wGZiAYGypwKvbwcG5-GL" version="15.2.7" type="github">
  <diagram id="7vaSENDy1p2W6-R5xNP_" name="Page-1">
    <mxGraphModel dx="868" dy="482" grid="1" gridSize="10" guides="1" tooltips="1" connect="1" arrows="1" fold="1" page="1" pageScale="1" pageWidth="827" pageHeight="1169" math="0" shadow="0">
      <root>
        <mxCell id="0" />
        <mxCell id="1" parent="0" />
        <mxCell id="0lBaA-p3WLzCFRZYkVHC-1" value="&lt;font style=&quot;font-size: 21px&quot;&gt;Bắt đầu&lt;/font&gt;" style="ellipse;whiteSpace=wrap;html=1;" parent="1" vertex="1">
          <mxGeometry x="370" y="210" width="120" height="80" as="geometry" />
        </mxCell>
        <mxCell id="0lBaA-p3WLzCFRZYkVHC-2" value="Nhập a ,b&amp;nbsp;" style="shape=parallelogram;perimeter=parallelogramPerimeter;whiteSpace=wrap;html=1;fixedSize=1;" parent="1" vertex="1">
          <mxGeometry x="370" y="330" width="120" height="60" as="geometry" />
        </mxCell>
        <mxCell id="0lBaA-p3WLzCFRZYkVHC-12" value="" style="endArrow=classic;html=1;exitX=0.5;exitY=1;exitDx=0;exitDy=0;entryX=0.5;entryY=0;entryDx=0;entryDy=0;" parent="1" source="0lBaA-p3WLzCFRZYkVHC-1" target="0lBaA-p3WLzCFRZYkVHC-2" edge="1">
          <mxGeometry width="50" height="50" relative="1" as="geometry">
            <mxPoint x="420" y="340" as="sourcePoint" />
            <mxPoint x="470" y="290" as="targetPoint" />
          </mxGeometry>
        </mxCell>
        <mxCell id="0lBaA-p3WLzCFRZYkVHC-13" value="" style="endArrow=classic;html=1;exitX=0.5;exitY=1;exitDx=0;exitDy=0;entryX=0.5;entryY=0;entryDx=0;entryDy=0;" parent="1" source="0lBaA-p3WLzCFRZYkVHC-2" edge="1">
          <mxGeometry width="50" height="50" relative="1" as="geometry">
            <mxPoint x="390" y="460" as="sourcePoint" />
            <mxPoint x="430" y="430" as="targetPoint" />
          </mxGeometry>
        </mxCell>
        <mxCell id="0lBaA-p3WLzCFRZYkVHC-43" value="" style="edgeStyle=orthogonalEdgeStyle;rounded=0;orthogonalLoop=1;jettySize=auto;html=1;fontSize=17;" parent="1" source="0lBaA-p3WLzCFRZYkVHC-30" target="0lBaA-p3WLzCFRZYkVHC-31" edge="1">
          <mxGeometry relative="1" as="geometry" />
        </mxCell>
        <mxCell id="0lBaA-p3WLzCFRZYkVHC-49" value="" style="edgeStyle=orthogonalEdgeStyle;rounded=0;orthogonalLoop=1;jettySize=auto;html=1;fontSize=17;" parent="1" source="0lBaA-p3WLzCFRZYkVHC-30" target="0lBaA-p3WLzCFRZYkVHC-36" edge="1">
          <mxGeometry relative="1" as="geometry" />
        </mxCell>
        <mxCell id="0lBaA-p3WLzCFRZYkVHC-30" value="a = 0" style="rhombus;whiteSpace=wrap;html=1;fontSize=17;" parent="1" vertex="1">
          <mxGeometry x="350" y="430" width="160" height="80" as="geometry" />
        </mxCell>
        <mxCell id="0lBaA-p3WLzCFRZYkVHC-45" value="" style="edgeStyle=orthogonalEdgeStyle;rounded=0;orthogonalLoop=1;jettySize=auto;html=1;fontSize=17;" parent="1" source="0lBaA-p3WLzCFRZYkVHC-31" target="0lBaA-p3WLzCFRZYkVHC-32" edge="1">
          <mxGeometry relative="1" as="geometry" />
        </mxCell>
        <mxCell id="0lBaA-p3WLzCFRZYkVHC-31" value="dt = b*b-4*a*c" style="rounded=0;whiteSpace=wrap;html=1;fontSize=17;" parent="1" vertex="1">
          <mxGeometry x="330" y="550" width="200" height="40" as="geometry" />
        </mxCell>
        <mxCell id="0lBaA-p3WLzCFRZYkVHC-46" value="" style="edgeStyle=orthogonalEdgeStyle;rounded=0;orthogonalLoop=1;jettySize=auto;html=1;fontSize=17;" parent="1" source="0lBaA-p3WLzCFRZYkVHC-32" target="0lBaA-p3WLzCFRZYkVHC-35" edge="1">
          <mxGeometry relative="1" as="geometry" />
        </mxCell>
        <mxCell id="0lBaA-p3WLzCFRZYkVHC-50" value="" style="edgeStyle=orthogonalEdgeStyle;rounded=0;orthogonalLoop=1;jettySize=auto;html=1;fontSize=17;" parent="1" source="0lBaA-p3WLzCFRZYkVHC-32" target="0lBaA-p3WLzCFRZYkVHC-39" edge="1">
          <mxGeometry relative="1" as="geometry" />
        </mxCell>
        <mxCell id="0lBaA-p3WLzCFRZYkVHC-32" value="dt &amp;lt; 0" style="rhombus;whiteSpace=wrap;html=1;fontSize=17;" parent="1" vertex="1">
          <mxGeometry x="350" y="630" width="160" height="80" as="geometry" />
        </mxCell>
        <mxCell id="0lBaA-p3WLzCFRZYkVHC-47" value="" style="edgeStyle=orthogonalEdgeStyle;rounded=0;orthogonalLoop=1;jettySize=auto;html=1;fontSize=17;" parent="1" source="0lBaA-p3WLzCFRZYkVHC-35" target="0lBaA-p3WLzCFRZYkVHC-37" edge="1">
          <mxGeometry relative="1" as="geometry" />
        </mxCell>
        <mxCell id="0lBaA-p3WLzCFRZYkVHC-51" value="" style="edgeStyle=orthogonalEdgeStyle;rounded=0;orthogonalLoop=1;jettySize=auto;html=1;fontSize=17;" parent="1" source="0lBaA-p3WLzCFRZYkVHC-35" target="0lBaA-p3WLzCFRZYkVHC-42" edge="1">
          <mxGeometry relative="1" as="geometry" />
        </mxCell>
        <mxCell id="0lBaA-p3WLzCFRZYkVHC-35" value="dt = 0" style="rhombus;whiteSpace=wrap;html=1;fontSize=17;" parent="1" vertex="1">
          <mxGeometry x="350" y="750" width="160" height="80" as="geometry" />
        </mxCell>
        <mxCell id="0lBaA-p3WLzCFRZYkVHC-36" value="Phương trình bậc 1" style="rounded=0;whiteSpace=wrap;html=1;fontSize=17;" parent="1" vertex="1">
          <mxGeometry x="620" y="440" width="210" height="60" as="geometry" />
        </mxCell>
        <mxCell id="0lBaA-p3WLzCFRZYkVHC-48" value="" style="edgeStyle=orthogonalEdgeStyle;rounded=0;orthogonalLoop=1;jettySize=auto;html=1;fontSize=17;" parent="1" source="0lBaA-p3WLzCFRZYkVHC-37" target="0lBaA-p3WLzCFRZYkVHC-38" edge="1">
          <mxGeometry relative="1" as="geometry" />
        </mxCell>
        <mxCell id="0lBaA-p3WLzCFRZYkVHC-37" value="Phương trình có 2 nghiệm phân biệt&lt;br&gt;x1 = (-b + sqrt(dt))/(2*a)&lt;br&gt;x2 = (-b - sqrt(dt))/(2*a)" style="rounded=0;whiteSpace=wrap;html=1;fontSize=17;" parent="1" vertex="1">
          <mxGeometry x="330" y="870" width="200" height="140" as="geometry" />
        </mxCell>
        <mxCell id="0lBaA-p3WLzCFRZYkVHC-38" value="&lt;font style=&quot;font-size: 22px&quot;&gt;Kết thúc&lt;/font&gt;" style="ellipse;whiteSpace=wrap;html=1;fontSize=17;" parent="1" vertex="1">
          <mxGeometry x="370" y="1040" width="120" height="80" as="geometry" />
        </mxCell>
        <mxCell id="0lBaA-p3WLzCFRZYkVHC-39" value="Phương trình vô nghiệm" style="rounded=0;whiteSpace=wrap;html=1;fontSize=17;" parent="1" vertex="1">
          <mxGeometry x="620" y="640" width="210" height="60" as="geometry" />
        </mxCell>
        <mxCell id="0lBaA-p3WLzCFRZYkVHC-42" value="Phương trình có nghiệm kép x = -b/(2*a))" style="rounded=0;whiteSpace=wrap;html=1;fontSize=17;" parent="1" vertex="1">
          <mxGeometry x="620" y="760" width="210" height="60" as="geometry" />
        </mxCell>
        <mxCell id="0lBaA-p3WLzCFRZYkVHC-52" value="" style="endArrow=none;html=1;fontSize=17;" parent="1" edge="1">
          <mxGeometry width="50" height="50" relative="1" as="geometry">
            <mxPoint x="880" y="1020" as="sourcePoint" />
            <mxPoint x="880" y="470" as="targetPoint" />
          </mxGeometry>
        </mxCell>
        <mxCell id="0lBaA-p3WLzCFRZYkVHC-54" value="" style="endArrow=none;html=1;fontSize=17;exitX=1;exitY=0.5;exitDx=0;exitDy=0;" parent="1" source="0lBaA-p3WLzCFRZYkVHC-36" edge="1">
          <mxGeometry width="50" height="50" relative="1" as="geometry">
            <mxPoint x="720" y="610" as="sourcePoint" />
            <mxPoint x="880" y="470" as="targetPoint" />
          </mxGeometry>
        </mxCell>
        <mxCell id="0lBaA-p3WLzCFRZYkVHC-55" value="" style="endArrow=none;html=1;fontSize=17;exitX=1;exitY=0.5;exitDx=0;exitDy=0;" parent="1" source="0lBaA-p3WLzCFRZYkVHC-39" edge="1">
          <mxGeometry width="50" height="50" relative="1" as="geometry">
            <mxPoint x="720" y="710" as="sourcePoint" />
            <mxPoint x="880" y="670" as="targetPoint" />
          </mxGeometry>
        </mxCell>
        <mxCell id="0lBaA-p3WLzCFRZYkVHC-56" value="" style="endArrow=none;html=1;fontSize=17;exitX=1;exitY=0.5;exitDx=0;exitDy=0;" parent="1" source="0lBaA-p3WLzCFRZYkVHC-42" edge="1">
          <mxGeometry width="50" height="50" relative="1" as="geometry">
            <mxPoint x="720" y="710" as="sourcePoint" />
            <mxPoint x="880" y="790" as="targetPoint" />
          </mxGeometry>
        </mxCell>
        <mxCell id="0lBaA-p3WLzCFRZYkVHC-58" value="" style="endArrow=classic;html=1;fontSize=17;" parent="1" edge="1">
          <mxGeometry width="50" height="50" relative="1" as="geometry">
            <mxPoint x="880" y="1020" as="sourcePoint" />
            <mxPoint x="430" y="1020" as="targetPoint" />
          </mxGeometry>
        </mxCell>
        <mxCell id="0lBaA-p3WLzCFRZYkVHC-59" value="Đ" style="text;html=1;strokeColor=none;fillColor=none;align=center;verticalAlign=middle;whiteSpace=wrap;rounded=0;fontSize=17;" parent="1" vertex="1">
          <mxGeometry x="550" y="440" width="40" height="20" as="geometry" />
        </mxCell>
        <mxCell id="0lBaA-p3WLzCFRZYkVHC-60" value="Đ" style="text;html=1;strokeColor=none;fillColor=none;align=center;verticalAlign=middle;whiteSpace=wrap;rounded=0;fontSize=17;" parent="1" vertex="1">
          <mxGeometry x="550" y="630" width="40" height="20" as="geometry" />
        </mxCell>
        <mxCell id="0lBaA-p3WLzCFRZYkVHC-61" value="Đ" style="text;html=1;strokeColor=none;fillColor=none;align=center;verticalAlign=middle;whiteSpace=wrap;rounded=0;fontSize=17;" parent="1" vertex="1">
          <mxGeometry x="550" y="760" width="40" height="20" as="geometry" />
        </mxCell>
        <mxCell id="0lBaA-p3WLzCFRZYkVHC-62" value="S" style="text;html=1;strokeColor=none;fillColor=none;align=center;verticalAlign=middle;whiteSpace=wrap;rounded=0;fontSize=17;" parent="1" vertex="1">
          <mxGeometry x="450" y="520" width="40" height="20" as="geometry" />
        </mxCell>
        <mxCell id="0lBaA-p3WLzCFRZYkVHC-63" value="S" style="text;html=1;strokeColor=none;fillColor=none;align=center;verticalAlign=middle;whiteSpace=wrap;rounded=0;fontSize=17;" parent="1" vertex="1">
          <mxGeometry x="450" y="720" width="40" height="20" as="geometry" />
        </mxCell>
        <mxCell id="0lBaA-p3WLzCFRZYkVHC-65" value="S" style="text;html=1;strokeColor=none;fillColor=none;align=center;verticalAlign=middle;whiteSpace=wrap;rounded=0;fontSize=17;" parent="1" vertex="1">
          <mxGeometry x="450" y="830" width="40" height="20" as="geometry" />
        </mxCell>
      </root>
    </mxGraphModel>
  </diagram>
</mxfile>
